<?xml version="1.0" standalone="no"?><!DOCTYPE svg PUBLIC "-//W3C//DTD SVG 1.1//EN" "http://www.w3.org/Graphics/SVG/1.1/DTD/svg11.dtd"><svg t="1712930137938" class="icon" viewBox="0 0 1024 1024" version="1.1" xmlns="http://www.w3.org/2000/svg" p-id="1041" xmlns:xlink="http://www.w3.org/1999/xlink" width="200" height="200"><path d="M835.557053 236.651789l-268.261053 384.161685 2.209684 113.178947 109.244632-30.504421 268.288-384.026947z m32.121263-45.810526l44.813473-64.215579 111.427369 82.755369-44.921263 64.161684z" p-id="1042"></path><path d="M709.901474 747.304421l-171.708632 49.960421-4.985263-179.011368L852.345263 149.773474a94.315789 94.315789 0 0 0-90.085052-70.332632H137.377684a95.932632 95.932632 0 0 0-94.315789 97.576421V887.376842a95.959579 95.959579 0 0 0 94.315789 97.603369h624.855579a95.986526 95.986526 0 0 0 94.31579-97.603369V532.075789l-146.620632 215.255579zM187.122526 250.637474h378.906948a46.133895 46.133895 0 0 1 0 92.213894H187.149474a46.133895 46.133895 0 0 1 0-92.213894z m199.410527 550.642526h-199.410527a46.133895 46.133895 0 0 1 0-92.213895h199.410527a46.133895 46.133895 0 0 1 0 92.213895z m79.25221-229.214316H187.149474a46.160842 46.160842 0 0 1 0-92.240842h278.581894a46.160842 46.160842 0 0 1 0 92.240842z" p-id="1043"></path></svg>