<?xml version="1.0" standalone="no"?><!DOCTYPE svg PUBLIC "-//W3C//DTD SVG 1.1//EN" "http://www.w3.org/Graphics/SVG/1.1/DTD/svg11.dtd"><svg t="1712930128236" class="icon" viewBox="0 0 1024 1024" version="1.1" xmlns="http://www.w3.org/2000/svg" p-id="882" xmlns:xlink="http://www.w3.org/1999/xlink" width="200" height="200"><path d="M340.210526 175.750737a23.066947 23.066947 0 0 1-22.608842-22.608842V59.418947a23.066947 23.066947 0 0 1 22.608842-22.608842h325.847579a23.066947 23.066947 0 0 1 22.608842 22.608842v92.618106a23.066947 23.066947 0 0 1-22.608842 22.608842H340.210526z" p-id="883"></path><path d="M874.576842 115.092211H739.435789v79.548631a32.336842 32.336842 0 0 1-31.555368 33.333895H298.496a32.848842 32.848842 0 0 1-31.555368-33.333895V115.631158H131.799579a37.564632 37.564632 0 0 0-36.540632 38.588631v785.488843a37.726316 37.726316 0 0 0 36.540632 38.588631h743.747368c16.168421 0 34.896842-4.688842 34.896842-39.181474V153.680842a37.510737 37.510737 0 0 0-35.866947-38.588631z m-145.515789 341.557894l-263.060211 277.234527a33.172211 33.172211 0 0 1-49.286737 0l-140.665263-148.560843a37.726316 37.726316 0 0 1 0-52.062315 33.172211 33.172211 0 0 1 49.286737 0l116.304842 121.667368 237.568-250.906947a33.172211 33.172211 0 0 1 49.286737 0 37.429895 37.429895 0 0 1 11.075368 26.327579 36.864 36.864 0 0 1-10.752 26.300631z" p-id="884"></path></svg>