<?xml version="1.0" standalone="no"?><!DOCTYPE svg PUBLIC "-//W3C//DTD SVG 1.1//EN" "http://www.w3.org/Graphics/SVG/1.1/DTD/svg11.dtd"><svg t="1712930145046" class="icon" viewBox="0 0 1024 1024" version="1.1" xmlns="http://www.w3.org/2000/svg" p-id="1200" xmlns:xlink="http://www.w3.org/1999/xlink" width="200" height="200"><path d="M784.249263 56.966737a133.173895 133.173895 0 0 1 136.111158 130.021052v650.051369a133.173895 133.173895 0 0 1-136.111158 130.021053H239.750737a133.173895 133.173895 0 0 1-136.111158-130.021053V186.987789a133.173895 133.173895 0 0 1 136.111158-130.021052z m-272.168421 236.058947a203.560421 203.560421 0 0 0-194.021053 134.117053 190.113684 190.113684 0 0 0 72.757895 217.869474 211.994947 211.994947 0 0 0 239.481263 1.967157l75.964632 72.542316a35.031579 35.031579 0 0 0 48.128 0 31.474526 31.474526 0 0 0 0-45.97221l-75.964632-72.515369a187.688421 187.688421 0 0 0 15.009685-202.401684A205.527579 205.527579 0 0 0 512 293.025684z m0 64.997053a130.155789 130.155789 0 1 1-136.272842 130.101895A133.173895 133.173895 0 0 1 512 358.022737z" p-id="1201"></path></svg>